<svg xmlns="http://www.w3.org/2000/svg" viewBox="0 0 400 560" width="400" height="560" role="img" aria-label="cleric portrait">
  <defs>
    <linearGradient id="bg" x1="0" y1="0" x2="0.6" y2="1">
      <stop offset="0" stop-color="#141317"/>
      <stop offset="1" stop-color="#08080a"/>
    </linearGradient>
    <clipPath id="frame"><rect x="0" y="0" width="400" height="560"/></clipPath>
  </defs>
  <g clip-path="url(#frame)">
    <rect width="400" height="560" fill="url(#bg)"/>
    <g fill="#e8c15a" opacity="0.20"><circle cx="13" cy="26" r="1.68"/><circle cx="312" cy="52" r="1.34"/><circle cx="273" cy="78" r="1.31"/><circle cx="299" cy="78" r="1.73"/><circle cx="78" cy="104" r="1.93"/><circle cx="104" cy="104" r="1.58"/><circle cx="208" cy="104" r="1.62"/><circle cx="364" cy="104" r="1.44"/><circle cx="91" cy="130" r="1.64"/><circle cx="143" cy="130" r="1.78"/><circle cx="169" cy="130" r="2.11"/><circle cx="221" cy="130" r="1.61"/><circle cx="247" cy="130" r="1.94"/><circle cx="273" cy="130" r="2.01"/><circle cx="0" cy="156" r="1.96"/><circle cx="260" cy="156" r="2.23"/><circle cx="364" cy="156" r="1.65"/><circle cx="91" cy="182" r="2.22"/><circle cx="117" cy="182" r="1.91"/><circle cx="273" cy="182" r="2.07"/><circle cx="26" cy="208" r="2.10"/><circle cx="156" cy="208" r="2.03"/><circle cx="208" cy="208" r="2.16"/><circle cx="234" cy="208" r="1.98"/><circle cx="39" cy="234" r="2.48"/><circle cx="117" cy="234" r="2.27"/><circle cx="143" cy="234" r="2.06"/><circle cx="195" cy="234" r="2.43"/><circle cx="247" cy="234" r="2.12"/><circle cx="299" cy="234" r="2.17"/><circle cx="377" cy="234" r="1.98"/><circle cx="52" cy="260" r="2.51"/><circle cx="78" cy="260" r="2.44"/><circle cx="104" cy="260" r="2.16"/><circle cx="130" cy="260" r="2.10"/><circle cx="156" cy="260" r="2.10"/><circle cx="182" cy="260" r="2.32"/><circle cx="234" cy="260" r="2.50"/><circle cx="286" cy="260" r="2.44"/><circle cx="390" cy="260" r="2.56"/><circle cx="13" cy="286" r="2.59"/><circle cx="65" cy="286" r="2.47"/><circle cx="91" cy="286" r="2.22"/><circle cx="143" cy="286" r="2.59"/><circle cx="247" cy="286" r="2.53"/><circle cx="273" cy="286" r="2.29"/><circle cx="351" cy="286" r="2.51"/><circle cx="403" cy="286" r="2.64"/><circle cx="0" cy="312" r="2.46"/><circle cx="156" cy="312" r="2.79"/><circle cx="208" cy="312" r="2.51"/><circle cx="260" cy="312" r="2.48"/><circle cx="338" cy="312" r="2.27"/><circle cx="364" cy="312" r="2.30"/><circle cx="390" cy="312" r="2.84"/><circle cx="13" cy="338" r="2.90"/><circle cx="65" cy="338" r="2.85"/><circle cx="91" cy="338" r="2.76"/><circle cx="117" cy="338" r="2.72"/><circle cx="143" cy="338" r="2.50"/><circle cx="169" cy="338" r="2.45"/><circle cx="195" cy="338" r="2.38"/><circle cx="247" cy="338" r="2.41"/><circle cx="273" cy="338" r="2.76"/><circle cx="325" cy="338" r="2.61"/><circle cx="351" cy="338" r="2.46"/><circle cx="377" cy="338" r="2.85"/><circle cx="403" cy="338" r="2.64"/><circle cx="0" cy="364" r="2.64"/><circle cx="26" cy="364" r="2.80"/><circle cx="52" cy="364" r="2.95"/><circle cx="78" cy="364" r="3.04"/><circle cx="130" cy="364" r="2.91"/><circle cx="156" cy="364" r="2.84"/><circle cx="182" cy="364" r="2.54"/><circle cx="234" cy="364" r="2.88"/><circle cx="260" cy="364" r="2.84"/><circle cx="286" cy="364" r="2.74"/><circle cx="312" cy="364" r="2.91"/><circle cx="364" cy="364" r="2.54"/><circle cx="13" cy="390" r="3.13"/><circle cx="39" cy="390" r="3.09"/><circle cx="65" cy="390" r="2.68"/><circle cx="91" cy="390" r="2.67"/><circle cx="143" cy="390" r="3.09"/><circle cx="169" cy="390" r="2.77"/><circle cx="195" cy="390" r="3.08"/><circle cx="221" cy="390" r="2.68"/><circle cx="247" cy="390" r="3.11"/><circle cx="299" cy="390" r="2.61"/><circle cx="325" cy="390" r="2.81"/><circle cx="377" cy="390" r="3.01"/><circle cx="403" cy="390" r="2.96"/><circle cx="0" cy="416" r="3.22"/><circle cx="26" cy="416" r="2.99"/><circle cx="52" cy="416" r="3.16"/><circle cx="78" cy="416" r="3.04"/><circle cx="104" cy="416" r="3.06"/><circle cx="130" cy="416" r="2.99"/><circle cx="156" cy="416" r="2.80"/><circle cx="182" cy="416" r="2.81"/><circle cx="208" cy="416" r="2.88"/><circle cx="234" cy="416" r="2.86"/><circle cx="286" cy="416" r="2.86"/><circle cx="312" cy="416" r="3.01"/><circle cx="390" cy="416" r="3.25"/><circle cx="39" cy="442" r="3.18"/><circle cx="65" cy="442" r="3.01"/><circle cx="91" cy="442" r="2.82"/><circle cx="117" cy="442" r="2.86"/><circle cx="143" cy="442" r="3.07"/><circle cx="169" cy="442" r="2.82"/><circle cx="195" cy="442" r="3.08"/><circle cx="221" cy="442" r="2.96"/><circle cx="247" cy="442" r="3.25"/><circle cx="273" cy="442" r="3.04"/><circle cx="299" cy="442" r="2.96"/><circle cx="325" cy="442" r="3.12"/><circle cx="351" cy="442" r="3.26"/><circle cx="377" cy="442" r="3.22"/><circle cx="403" cy="442" r="3.09"/><circle cx="0" cy="468" r="3.08"/><circle cx="26" cy="468" r="3.30"/><circle cx="52" cy="468" r="3.38"/><circle cx="78" cy="468" r="3.14"/><circle cx="104" cy="468" r="3.11"/><circle cx="130" cy="468" r="3.32"/><circle cx="156" cy="468" r="3.26"/><circle cx="182" cy="468" r="3.40"/><circle cx="208" cy="468" r="3.26"/><circle cx="234" cy="468" r="3.41"/><circle cx="260" cy="468" r="2.92"/><circle cx="286" cy="468" r="3.18"/><circle cx="312" cy="468" r="3.46"/><circle cx="338" cy="468" r="3.13"/><circle cx="364" cy="468" r="2.97"/><circle cx="390" cy="468" r="3.13"/><circle cx="13" cy="494" r="3.48"/><circle cx="39" cy="494" r="3.18"/><circle cx="65" cy="494" r="3.57"/><circle cx="91" cy="494" r="3.15"/><circle cx="117" cy="494" r="3.04"/><circle cx="143" cy="494" r="3.03"/><circle cx="169" cy="494" r="3.30"/><circle cx="195" cy="494" r="3.48"/><circle cx="221" cy="494" r="3.30"/><circle cx="247" cy="494" r="3.08"/><circle cx="273" cy="494" r="3.07"/><circle cx="299" cy="494" r="3.21"/><circle cx="325" cy="494" r="3.22"/><circle cx="351" cy="494" r="3.59"/><circle cx="377" cy="494" r="3.46"/><circle cx="403" cy="494" r="3.46"/><circle cx="0" cy="520" r="3.54"/><circle cx="26" cy="520" r="3.11"/><circle cx="52" cy="520" r="3.69"/><circle cx="78" cy="520" r="3.26"/><circle cx="104" cy="520" r="3.64"/><circle cx="130" cy="520" r="3.61"/><circle cx="156" cy="520" r="3.56"/><circle cx="182" cy="520" r="3.46"/><circle cx="208" cy="520" r="3.67"/><circle cx="234" cy="520" r="3.61"/><circle cx="260" cy="520" r="3.54"/><circle cx="286" cy="520" r="3.25"/><circle cx="312" cy="520" r="3.50"/><circle cx="338" cy="520" r="3.39"/><circle cx="364" cy="520" r="3.33"/><circle cx="390" cy="520" r="3.55"/><circle cx="13" cy="546" r="3.56"/><circle cx="39" cy="546" r="3.56"/><circle cx="65" cy="546" r="3.75"/><circle cx="91" cy="546" r="3.77"/><circle cx="117" cy="546" r="3.77"/><circle cx="143" cy="546" r="3.24"/><circle cx="169" cy="546" r="3.24"/><circle cx="195" cy="546" r="3.41"/><circle cx="221" cy="546" r="3.26"/><circle cx="247" cy="546" r="3.26"/><circle cx="273" cy="546" r="3.73"/><circle cx="299" cy="546" r="3.24"/><circle cx="325" cy="546" r="3.28"/><circle cx="351" cy="546" r="3.43"/><circle cx="377" cy="546" r="3.69"/><circle cx="403" cy="546" r="3.21"/></g>
    <g stroke="#e8c15a" stroke-width="26" opacity="0.14">
      <path d="M-120 620 L360 -60"/><path d="M40 700 L520 20"/>
    </g>
    <path d="M0 560 L400 300 L400 560 Z" fill="#e8c15a" opacity="0.16"/>
    <g transform="translate(200 258) scale(2.6) translate(-50 -50)">
      <g fill="none" stroke="#000" stroke-width="9" stroke-linecap="round" stroke-linejoin="round" opacity="0.85">
        <path d="M50 12 L58 34 L80 30 L66 48 L80 66 L58 62 L50 84 L42 62 L20 66 L34 48 L20 30 L42 34 Z M50 34 A14 14 0 1 0 50 62 A14 14 0 1 0 50 34 Z"/>
      </g>
      <g fill="none" stroke="#e8c15a" stroke-width="4.5" stroke-linecap="round" stroke-linejoin="round">
        <path d="M50 12 L58 34 L80 30 L66 48 L80 66 L58 62 L50 84 L42 62 L20 66 L34 48 L20 30 L42 34 Z M50 34 A14 14 0 1 0 50 62 A14 14 0 1 0 50 34 Z"/>
      </g>
    </g>
    <rect x="8" y="8" width="384" height="544" fill="none" stroke="#e8c15a" stroke-width="3" opacity="0.55"/>
    <text x="200" y="512" text-anchor="middle" font-family="Impact, 'Arial Black', sans-serif" font-size="42"
          letter-spacing="6" fill="#e8c15a" opacity="0.9">CLERIC</text>
  </g>
</svg>
